<svg width="40" height="41" viewBox="0 0 40 41" fill="none" xmlns="http://www.w3.org/2000/svg">
<path d="M37.5 20.5C37.5039 21.0127 37.3481 21.5139 37.0541 21.934C36.76 22.354 36.3424 22.672 35.8593 22.8438L25.9468 26.4484L22.3437 36.3594C22.1661 36.8378 21.8464 37.2505 21.4274 37.5418C21.0084 37.8332 20.5103 37.9894 20 37.9894C19.4896 37.9894 18.9915 37.8332 18.5725 37.5418C18.1536 37.2505 17.8338 36.8378 17.6562 36.3594L14.0515 26.4375L4.1406 22.8438C3.66215 22.6662 3.24952 22.3464 2.95813 21.9274C2.66674 21.5085 2.51056 21.0103 2.51056 20.5C2.51056 19.9897 2.66674 19.4915 2.95813 19.0726C3.24952 18.6536 3.66215 18.3338 4.1406 18.1563L14.0625 14.5516L17.6562 4.64063C17.8338 4.16218 18.1536 3.74955 18.5725 3.45816C18.9915 3.16677 19.4896 3.01059 20 3.01059C20.5103 3.01059 21.0084 3.16677 21.4274 3.45816C21.8464 3.74955 22.1661 4.16218 22.3437 4.64063L25.9484 14.5625L35.8593 18.1563C36.3424 18.328 36.76 18.646 37.0541 19.066C37.3481 19.4861 37.5039 19.9873 37.5 20.5Z" fill="#AD28EB"/>
</svg>
